<?xml version="1.0" encoding="UTF-8"?>
<svg version="1.1" id="Layer_1" xmlns="http://www.w3.org/2000/svg" xmlns:xlink="http://www.w3.org/1999/xlink" x="0px" y="0px" viewBox="0 0 87.46 122.88" style="enable-background:new 0 0 87.46 122.88" xml:space="preserve"><style type="text/css"><![CDATA[
	.st0{fill:#8B89CC;}
]]></style><g><path class="st0" d="M68.56,53.96H18.91V39.03c5.04-19.97,24.83-20.25,24.83-20.25s19.79,0.27,24.82,20.25V53.96L68.56,53.96z M43.73,0C43.73,0,7.48-1.19,0,39.03l0,27.39c0,0,0.31,2.93,8.55,8.89c8.25,5.95,29.59,22.72,35.18,22.72 c5.59,0,26.93-16.76,35.18-22.72c8.24-5.96,8.55-8.89,8.55-8.89V39.03C79.98-1.19,43.73,0,43.73,0L43.73,0z"/><path class="st0" d="M43.73,104.19c0,0-5.62-0.55-10.02-3.6c-4.4-3.05-33.72-24-33.72-24v41.47c0,0,0.25,4.82,5.56,4.82 c5.31,0,38.17,0,38.17,0s32.86,0,38.17,0c5.31,0,5.56-4.82,5.56-4.82V76.59c0,0-29.32,20.95-33.72,24 C49.35,103.64,43.73,104.19,43.73,104.19L43.73,104.19L43.73,104.19z M43.73,104.19L43.73,104.19L43.73,104.19L43.73,104.19z"/></g></svg>